<svg xmlns="http://www.w3.org/2000/svg" xmlns:xlink="http://www.w3.org/1999/xlink" version="1.1" style="" xml:space="preserve" width="480.014" height="480.014"><rect id="backgroundrect" width="100%" height="100%" x="0" y="0" fill="none" stroke="none"/>
















<g class="currentLayer" style=""><title>Layer 1</title><g id="svg_1" class="selected" fill="#ffffff" fill-opacity="1">
	<g id="svg_2" fill="#ffffff" fill-opacity="1">
		<path d="M144.007,296h200c75.076-0.084,135.916-60.924,136-136v-8c-0.084-75.076-60.924-135.916-136-136H134.559    c-1.134-3.341-3.029-6.373-5.536-8.856c-4.46-4.602-10.607-7.183-17.016-7.144c-10.134,0.042-19.15,6.445-22.528,16H0.007v112    h89.472c4.335,12.442,17.935,19.014,30.376,14.68c6.877-2.396,12.284-7.802,14.68-14.68h201.472c13.255,0,24,10.745,24,24v8    c0,13.255-10.745,24-24,24h-200c-75.076,0.084-135.916,60.924-136,136v8c0.084,75.076,60.924,135.916,136,136h209.472    c4.335,12.442,17.935,19.014,30.376,14.68c6.877-2.396,12.284-7.802,14.68-14.68h89.472V352h-89.448    c-1.134-3.341-3.029-6.373-5.536-8.856c-4.46-4.602-10.607-7.183-17.016-7.144c-10.134,0.042-19.15,6.445-22.528,16H144.007    c-13.255,0-24-10.745-24-24v-8C120.007,306.746,130.752,296,144.007,296z M88.007,112h-72V32h72V112z M120.007,120    c0,4.418-3.582,8-8,8s-8-3.582-8-8V24c0-4.418,3.582-8,8-8c2.159-0.004,4.223,0.885,5.704,2.456    c1.486,1.46,2.315,3.461,2.296,5.544V120z M392.007,368h72v80h-72V368z M360.007,360c0-4.418,3.582-8,8-8    c2.159-0.004,4.224,0.885,5.704,2.456c1.486,1.46,2.315,3.461,2.296,5.544v96c0,4.418-3.582,8-8,8s-8-3.582-8-8V360z M144.007,368    h200v80h-208c-66.243-0.075-119.925-53.757-120-120v-8c0.075-66.243,53.757-119.925,120-120h200c22.08-0.026,39.974-17.92,40-40    v-8c-0.026-22.08-17.92-39.974-40-40h-200V32h208c66.243,0.075,119.925,53.757,120,120v8c-0.075,66.243-53.757,119.925-120,120    h-200c-22.08,0.026-39.974,17.92-40,40v8C104.034,350.081,121.927,367.974,144.007,368z" id="svg_3" fill="#ffffff" fill-opacity="1"/>
	</g>
</g><g id="svg_4">
</g><g id="svg_5">
</g><g id="svg_6">
</g><g id="svg_7">
</g><g id="svg_8">
</g><g id="svg_9">
</g><g id="svg_10">
</g><g id="svg_11">
</g><g id="svg_12">
</g><g id="svg_13">
</g><g id="svg_14">
</g><g id="svg_15">
</g><g id="svg_16">
</g><g id="svg_17">
</g><g id="svg_18">
</g></g></svg>